<?xml version="1.0" encoding="UTF-8" standalone="no"?>
<svg width="70px" height="70px" viewBox="0 0 70 70" version="1.1" xmlns="http://www.w3.org/2000/svg" xmlns:xlink="http://www.w3.org/1999/xlink">
    <!-- Generator: Sketch 39.1 (31720) - http://www.bohemiancoding.com/sketch -->
    <title>instagram logo</title>
    <desc>Created with Sketch.</desc>
    <defs>
        <circle id="path-1" cx="35" cy="35" r="35"></circle>
        <mask id="mask-2" maskContentUnits="userSpaceOnUse" maskUnits="objectBoundingBox" x="0" y="0" width="70" height="70" fill="white">
            <use xlink:href="#path-1"></use>
        </mask>
    </defs>
    <g id="Page-1" stroke="none" stroke-width="1" fill="none" fill-rule="evenodd">
        <g id="Desktop" transform="translate(-473.000000, -71.000000)">
            <g id="instagram-logo" transform="translate(473.000000, 71.000000)">
                <use id="Oval" stroke="#000000" mask="url(#mask-2)" stroke-width="4" fill="#F4F4F4" xlink:href="#path-1"></use>
                <path d="M44.7598456,19.0909091 L25.2401544,19.0909091 C21.8503057,19.0909091 19.0909091,21.848435 19.0909091,25.2401544 L19.0909091,44.7598456 C19.0909091,48.151565 21.8503057,50.9090909 25.2401544,50.9090909 L44.7598456,50.9090909 C48.1496943,50.9090909 50.9090909,48.151565 50.9090909,44.7598456 L50.9090909,25.2401544 C50.9090909,21.848435 48.1496943,19.0909091 44.7598456,19.0909091 L44.7598456,19.0909091 Z M46.5239887,22.7595035 L47.227401,22.755762 L47.227401,28.1492132 L41.8507868,28.1660502 L41.832079,22.772599 L46.5239887,22.7595035 L46.5239887,22.7595035 Z M30.4596233,31.7336227 C31.4773262,30.3230565 33.1310934,29.3988925 35,29.3988925 C36.8689066,29.3988925 38.5226738,30.3230565 39.5403767,31.7336227 C40.2045027,32.6540452 40.6011075,33.7802531 40.6011075,35 C40.6011075,38.0867827 38.0886535,40.5992367 35,40.5992367 C31.9132173,40.5992367 29.4007633,38.0867827 29.4007633,35 C29.4007633,33.7802531 29.7973681,32.6540452 30.4596233,31.7336227 L30.4596233,31.7336227 Z M47.8092128,44.7598456 C47.8092128,46.4416745 46.4416745,47.8092128 44.7598456,47.8092128 L25.2401544,47.8092128 C23.5583255,47.8092128 22.1907872,46.4416745 22.1907872,44.7598456 L22.1907872,31.7336227 L26.9425618,31.7336227 C26.5309908,32.7438425 26.3008851,33.8457304 26.3008851,35 C26.3008851,39.7966732 30.2033268,43.7009856 35,43.7009856 C39.798544,43.7009856 43.7009856,39.7966732 43.7009856,35 C43.7009856,33.8457304 43.4671385,32.7438425 43.059309,31.7336227 L47.8092128,31.7336227 L47.8092128,44.7598456 L47.8092128,44.7598456 Z" id="Shape" fill="#000000"></path>
            </g>
        </g>
    </g>
</svg>