<?xml version="1.0" encoding="UTF-8" standalone="no"?>
<svg width="623px" height="20px" viewBox="0 0 623 20" version="1.1" xmlns="http://www.w3.org/2000/svg" xmlns:xlink="http://www.w3.org/1999/xlink">
    <!-- Generator: Sketch 39.1 (31720) - http://www.bohemiancoding.com/sketch -->
    <title>Production Header</title>
    <desc>Created with Sketch.</desc>
    <defs></defs>
    <g id="Page-1" stroke="none" stroke-width="1" fill="none" fill-rule="evenodd">
        <g id="Desktop" transform="translate(-201.000000, -154.000000)">
            <g id="Production-Header" transform="translate(202.000000, 151.000000)">
                <path d="M236.6875,13.538125 C236.873437,13.43 237,13.230625 237,13 C237,7.476875 232.522812,3 227,3 C221.477188,3 217,7.476875 217,13 C217,13.230625 217.126563,13.43 217.3125,13.538125 L217.3125,14.9621875 C217.126875,15.0709375 217,15.2703125 217,15.5 L217,18 C217,18.3434375 217.28125,18.625 217.625,18.625 C217.96875,18.625 218.25,18.3434375 218.25,18 L218.25,17.6875 L218.5625,17.6875 L218.5625,18.9375 C218.5625,19.796875 219.265625,20.5 220.125,20.5 L220.4375,20.5 C220.953125,20.5 221.375,20.0778125 221.375,19.5625 L221.375,13.9375 C221.375,13.4215625 220.953125,13 220.4375,13 L220.125,13 C219.265625,13 218.5625,13.703125 218.5625,14.5625 L218.5625,16.125 L218.25,16.125 L218.25,15.5 C218.25,15.2703125 218.123125,15.0709375 217.9375,14.9621875 L217.9375,13.538125 C218.123437,13.43 218.25,13.230625 218.25,13 C218.25,8.1675 222.1675,4.25 227,4.25 C231.8325,4.25 235.75,8.1675 235.75,13 C235.75,13.230625 235.876563,13.43 236.0625,13.538125 L236.0625,14.9621875 C235.876875,15.0709375 235.75,15.2703125 235.75,15.5 L235.75,16.125 L235.4375,16.125 L235.4375,14.5625 C235.4375,13.703125 234.734375,13 233.875,13 L233.5625,13 C233.046875,13 232.625,13.4215625 232.625,13.9375 L232.625,19.5625 C232.625,20.0778125 233.046875,20.5 233.5625,20.5 L233.875,20.5 C234.734375,20.5 235.4375,19.796875 235.4375,18.9375 L235.4375,17.6875 L235.75,17.6875 L235.75,18 C235.75,18.3434375 236.03125,18.625 236.375,18.625 C236.71875,18.625 237,18.3434375 237,18 L237,15.5 C237,15.2703125 236.873125,15.0709375 236.6875,14.9621875 L236.6875,13.538125 Z" id="Headphones" fill="#000000"></path>
                <path d="M0,12 L200.5,12" id="Line" stroke="#979797" stroke-linecap="square"></path>
                <path d="M421,12 L621.5,12" id="Line" stroke="#979797" stroke-linecap="square"></path>
                <text id="Production-Catalog" font-family="HelveticaNeue-Thin, Helvetica Neue" font-size="20" font-weight="300" fill="#000000">
                    <tspan x="247.28" y="19">Production</tspan>
                    <tspan x="336.3" y="19" font-family="HelveticaNeue, Helvetica Neue" font-weight="normal"> </tspan>
                    <tspan x="341.86" y="19">Catalog</tspan>
                </text>
            </g>
        </g>
    </g>
</svg>