<?xml version="1.0" encoding="UTF-8" standalone="no"?>
<svg width="70px" height="70px" viewBox="0 0 70 70" version="1.1" xmlns="http://www.w3.org/2000/svg" xmlns:xlink="http://www.w3.org/1999/xlink">
    <!-- Generator: Sketch 39.1 (31720) - http://www.bohemiancoding.com/sketch -->
    <title>soundcloud logo</title>
    <desc>Created with Sketch.</desc>
    <defs>
        <path d="M35,70 C54.3299662,70 70,54.3299662 70,35 C70,15.6700338 54.3299662,0 35,0 C15.6700338,0 0,15.6700338 0,35 C0,54.3299662 15.6700338,70 35,70 Z" id="path-1"></path>
        <mask id="mask-2" maskContentUnits="userSpaceOnUse" maskUnits="objectBoundingBox" x="0" y="0" width="70" height="70" fill="white">
            <use xlink:href="#path-1"></use>
        </mask>
    </defs>
    <g id="Page-1" stroke="none" stroke-width="1" fill="none" fill-rule="evenodd">
        <g id="Desktop" transform="translate(-363.000000, -71.000000)">
            <g id="soundcloud-logo" transform="translate(363.000000, 71.000000)">
                <use id="Oval" stroke="#000000" mask="url(#mask-2)" stroke-width="4" fill="#F4F4F4" xlink:href="#path-1"></use>
                <path d="M32.2862616,46.4051663 L32.2862616,21.0682736 C32.2862616,20.2625774 32.5297402,19.7796601 33.0192336,19.6245261 C41.170694,17.7053678 49.4058501,23.3677605 50.1540395,31.8976308 C58.122891,28.5472359 65.0518859,38.6434597 58.8761529,44.7061983 C57.3112957,46.2425258 55.4344815,47.0106895 53.2457104,47.0106895 L32.7098129,46.9881701 C32.4384357,46.8980922 32.2862616,46.6178501 32.2862616,46.4051663 L32.2862616,46.4051663 Z M26.762341,45.659522 C26.762341,47.4911046 30.2572733,47.5136241 30.2572733,45.659522 L30.2572733,21.2834595 C30.2572733,18.9764661 26.762341,18.9864748 26.762341,21.2834595 L26.762341,45.659522 L26.762341,45.659522 Z M21.3347974,45.659522 C21.3347974,47.4485679 24.8271934,47.5186284 24.8271934,45.659522 L24.8271934,31.2921076 C24.8271934,28.9851142 21.3347974,28.9951229 21.3347974,31.2921076 L21.3347974,45.659522 L21.3347974,45.659522 Z M15.9275436,44.9138777 C15.9275436,46.755469 19.3996498,46.7854949 19.3996498,44.9138777 L19.3996498,29.1727764 C19.3996498,26.94335 15.9275436,26.9158262 15.9275436,29.1727764 L15.9275436,44.9138777 Z M10.5,42.0263827 C10.5,44.1757399 13.9695699,44.7187091 13.9695699,42.0263827 L13.9695699,35.2730474 C13.9695699,32.9860713 10.5,33.0060886 10.5,35.2730474 L10.5,42.0263827 Z" id="soundcloud-[#164]" fill="#000000"></path>
            </g>
        </g>
    </g>
</svg>