<?xml version="1.0" encoding="UTF-8" standalone="no"?>
<svg width="70px" height="70px" viewBox="0 0 70 70" version="1.1" xmlns="http://www.w3.org/2000/svg" xmlns:xlink="http://www.w3.org/1999/xlink">
    <!-- Generator: Sketch 39.1 (31720) - http://www.bohemiancoding.com/sketch -->
    <title>twitter logo</title>
    <desc>Created with Sketch.</desc>
    <defs>
        <circle id="path-1" cx="35" cy="35" r="35"></circle>
        <mask id="mask-2" maskContentUnits="userSpaceOnUse" maskUnits="objectBoundingBox" x="0" y="0" width="70" height="70" fill="white">
            <use xlink:href="#path-1"></use>
        </mask>
    </defs>
    <g id="Page-1" stroke="none" stroke-width="1" fill="none" fill-rule="evenodd">
        <g id="Desktop" transform="translate(-693.000000, -71.000000)">
            <g id="twitter-logo" transform="translate(693.000000, 71.000000)">
                <use id="Oval" stroke="#000000" mask="url(#mask-2)" stroke-width="4" fill="#F4F4F4" xlink:href="#path-1"></use>
                <path d="M48.5643279,26.8000276 C49.9801502,25.9065631 51.066529,24.4898428 51.5763819,22.8021877 C50.2507644,23.6315378 48.7859178,24.2313172 47.2230226,24.5560254 C45.975844,23.1496461 44.1933199,22.2727273 42.2205814,22.2727273 C38.4359042,22.2727273 35.368943,25.5094678 35.368943,29.501103 C35.368943,30.0677912 35.4258112,30.6200018 35.5434696,31.1473941 C29.848805,30.8454362 24.7993005,27.9706315 21.4166226,23.5943101 C20.8263699,24.6656402 20.4890826,25.9065631 20.4890826,27.2302142 C20.4890826,29.7368784 21.6990027,31.9498575 23.538395,33.2486901 C22.4147577,33.2114625 21.3577935,32.8826179 20.4322144,32.3448846 L20.4322144,32.4338174 C20.4322144,35.9373564 22.7932254,38.8597298 25.9327426,39.5215553 C25.3562167,39.6911481 24.7522371,39.7759445 24.1247259,39.7759445 C23.683507,39.7759445 23.252093,39.7325122 22.8363668,39.6477158 C23.7070387,42.518384 26.2386544,44.6114073 29.2389425,44.6672488 C26.8916583,46.6072249 23.9364725,47.7612832 20.7263603,47.7612832 C20.173366,47.7612832 19.6262546,47.7302601 19.0909091,47.6620094 C22.1245338,49.7116003 25.7268405,50.9090909 29.5978005,50.9090909 C42.2068546,50.9090909 49.0977125,39.8938322 49.0977125,30.3407942 C49.0977125,30.0264271 49.0937905,29.7141281 49.0800637,29.4059656 C50.419408,28.3863407 51.5842258,27.1123265 52.5,25.6625149 C51.2704702,26.2374759 49.9487746,26.6262984 48.5643279,26.8000276 Z" id="Shape" fill="#000000"></path>
            </g>
        </g>
    </g>
</svg>